<?xml version="1.0" encoding="UTF-8" standalone="no" ?>
<!DOCTYPE svg PUBLIC "-//W3C//DTD SVG 1.1//EN" "http://www.w3.org/Graphics/SVG/1.1/DTD/svg11.dtd">
<svg xmlns="http://www.w3.org/2000/svg" xmlns:xlink="http://www.w3.org/1999/xlink" version="1.1" width="400" height="400" viewBox="0 0 400 400" xml:space="preserve">
<desc>Created with Fabric.js 3.6.2</desc>
<defs>
</defs>
<g transform="matrix(0.48 0 0 0.48 200 200)"  >
<path style="stroke: none; stroke-width: 1; stroke-dasharray: none; stroke-linecap: butt; stroke-dashoffset: 0; stroke-linejoin: miter; stroke-miterlimit: 4; fill: rgb(255,255,255); fill-rule: nonzero; opacity: 1;"  transform=" translate(-256, -256)" d="M 464 428 L 339.92 303.9 a 160.48 160.48 0 0 0 30.72 -94.58 C 370.64 120.37 298.27 48 209.32 48 S 48 120.37 48 209.32 s 72.37 161.32 161.32 161.32 a 160.48 160.48 0 0 0 94.58 -30.72 L 428 464 Z M 209.32 319.69 A 110.38 110.38 0 1 1 319.69 209.32 A 110.5 110.5 0 0 1 209.32 319.69 Z" stroke-linecap="round" />
</g>
</svg>