<?xml version="1.0" encoding="UTF-8" standalone="no" ?>
<!DOCTYPE svg PUBLIC "-//W3C//DTD SVG 1.1//EN" "http://www.w3.org/Graphics/SVG/1.1/DTD/svg11.dtd">
<svg xmlns="http://www.w3.org/2000/svg" xmlns:xlink="http://www.w3.org/1999/xlink" version="1.1" width="400" height="400" viewBox="0 0 400 400" xml:space="preserve">
<desc>Created with Fabric.js 3.6.2</desc>
<defs>
</defs>
<g transform="matrix(6.25 0 0 6.25 200 200)" id="Слой_1"  >
<path style="stroke: none; stroke-width: 1; stroke-dasharray: none; stroke-linecap: butt; stroke-dashoffset: 0; stroke-linejoin: miter; stroke-miterlimit: 4; fill: rgb(172,172,172); fill-rule: evenodd; opacity: 1;"  transform=" translate(-16, -16.03)" d="M 1 2.053 h 3 h 7.455 H 19 v 0.025 c 6.117 0.264 11 5.292 11 11.475 c 0 6.182 -4.883 11.211 -11 11.475 v 0.025 h -7.545 H 4 H 3.362 l 3.294 -3.294 c 0.389 -0.389 0.389 -1.025 0 -1.414 s -1.025 -0.389 -1.414 0 l -4.95 4.95 c -0.201 0.201 -0.293 0.467 -0.287 0.732 c -0.007 0.265 0.086 0.531 0.287 0.732 l 4.95 4.95 c 0.389 0.389 1.025 0.389 1.414 0 s 0.389 -1.025 0 -1.414 l -3.242 -3.241 H 19 c 0.059 0 0.109 -0.024 0.165 -0.034 C 26.31 26.67 32 20.784 32 13.553 c 0 -7.456 -6.044 -13.5 -13.5 -13.5 c -0.135 0 -0.266 0.016 -0.401 0.02 c -0.034 -0.004 -0.064 -0.02 -0.099 -0.02 H 1 c -0.55 0 -1 0.45 -1 1 C 0 1.603 0.45 2.053 1 2.053 z" stroke-linecap="round" />
</g>
</svg>